<?xml version="1.0" encoding="UTF-8"?>
<svg xmlns="http://www.w3.org/2000/svg" id="Layer_1" data-name="Layer 1" viewBox="0 0 24 24">
  <path d="M21.085,6.758c-.07-.149-.176-.279-.308-.377-.13-.097-.262-.195-.395-.293V3.537c0-.552-.447-1-1-1s-1,.448-1,1v1.1c-2.695-1.912-5.398-3.637-6.383-3.637-1.299,0-5.49,2.927-8.778,5.382-.133,.1-.24,.231-.31,.383-.047,.102-1.154,2.562-1.154,7.578,0,2.165,.202,5.37,.432,6.858,.059,.38,.33,.692,.698,.804,.134,.041,3.346,.995,9.112,.995s8.977-.955,9.11-.995c.367-.112,.639-.424,.697-.804,.231-1.498,.435-4.703,.435-6.858,0-5.059-1.11-7.483-1.157-7.584Zm-11.17,14.196v-4.073c0-1.211,.936-2.196,2.085-2.196s2.085,.985,2.085,2.196v4.073c-.65,.029-1.345,.046-2.085,.046s-1.435-.017-2.085-.046Zm10.002-.711c-.704,.159-2.002,.407-3.832,.576v-3.938c0-2.314-1.832-4.196-4.085-4.196s-4.085,1.882-4.085,4.196v3.938c-1.83-.168-3.129-.417-3.834-.576-.178-1.559-.323-4.132-.323-5.901,0-3.724,.653-5.875,.888-6.527,2.938-2.181,6.457-4.55,7.353-4.804,.893,.258,4.415,2.627,7.358,4.806,.235,.649,.886,2.778,.886,6.525,0,1.763-.146,4.337-.325,5.901Z"/>
</svg>
