<?xml version="1.0" encoding="UTF-8"?>
<svg version="1.1" xmlns="http://www.w3.org/2000/svg" width="64" height="64">
<path d="M0 0 C0.66 0 1.32 0 2 0 C2 0.66 2 1.32 2 2 C4.31 2 6.62 2 9 2 C9 1.34 9 0.68 9 0 C9.66 0 10.32 0 11 0 C11 0.66 11 1.32 11 2 C11.99 2 12.98 2 14 2 C14 9.59 14 17.18 14 25 C10.04 25.495 10.04 25.495 6 26 C4.9805881 26.98020375 3.97753644 27.97803008 3 29 C-0.11811483 29.38976435 -2.11019567 29.50422245 -4.875 27.9375 C-6.61973477 24.93267901 -6.30835443 22.39189869 -6 19 C-5.34 18.34 -4.68 17.68 -4 17 C-3.69400937 14.43083343 -3.48912913 11.95241616 -3.375 9.375 C-3.33632812 8.66859375 -3.29765625 7.9621875 -3.2578125 7.234375 C-3.16352276 5.49001476 -3.08067109 3.74504309 -3 2 C-2.01 2 -1.02 2 0 2 C0 1.34 0 0.68 0 0 Z " fill="#EFEDF1" transform="translate(12,19)"/>
<path d="M0 0 C6.93 0 13.86 0 21 0 C21 2.64 21 5.28 21 8 C17.68751813 8.02888146 14.37506833 8.04675799 11.0625 8.0625 C10.11697266 8.07087891 9.17144531 8.07925781 8.19726562 8.08789062 C6.84858398 8.09272461 6.84858398 8.09272461 5.47265625 8.09765625 C4.64000244 8.10289307 3.80734863 8.10812988 2.94946289 8.11352539 C1 8 1 8 0 7 C0 4.69 0 2.38 0 0 Z " fill="#29E6A9" transform="translate(37,35)"/>
<path d="M0 0 C0.83265381 0.00523682 1.66530762 0.01047363 2.52319336 0.01586914 C3.42231445 0.0190918 4.32143555 0.02231445 5.24780273 0.02563477 C6.66609375 0.03820312 6.66609375 0.03820312 8.11303711 0.05102539 C9.06243164 0.05553711 10.01182617 0.06004883 10.98999023 0.06469727 C13.34356776 0.07652429 15.69702188 0.09300514 18.05053711 0.11352539 C18.05053711 2.75352539 18.05053711 5.39352539 18.05053711 8.11352539 C11.12053711 8.11352539 4.19053711 8.11352539 -2.94946289 8.11352539 C-2.94946289 0.17175958 -2.94946289 0.17175958 0 0 Z " fill="#A69ED2" transform="translate(39.949462890625,20.886474609375)"/>
<path d="M0 0 C1.67542976 0.28604898 3.34385343 0.61781233 5 1 C4.83757813 1.56589844 4.67515625 2.13179687 4.5078125 2.71484375 C3.98405721 5.07174255 3.86684138 7.15162662 3.875 9.5625 C3.87242188 10.32691406 3.86984375 11.09132813 3.8671875 11.87890625 C3.92092616 14.18998495 3.92092616 14.18998495 5 17 C4.67 17.66 4.34 18.32 4 19 C3.86210368 23.27478606 3.84530407 26.87608598 5 31 C4.67 31.33 4.34 31.66 4 32 C3.90105545 33.4346959 3.87029265 34.87440397 3.875 36.3125 C3.87242188 37.09238281 3.86984375 37.87226562 3.8671875 38.67578125 C3.99500088 40.91251539 4.38086131 42.85266979 5 45 C2.525 45.495 2.525 45.495 0 46 C-0.5625 44.0625 -0.5625 44.0625 -1 42 C-0.505 41.505 -0.505 41.505 0 41 C0.09894455 39.5653041 0.12970735 38.12559603 0.125 36.6875 C0.12757812 35.90761719 0.13015625 35.12773438 0.1328125 34.32421875 C0.07422636 31.99282864 0.07422636 31.99282864 -0.5703125 29.76953125 C-0.71210938 29.18558594 -0.85390625 28.60164063 -1 28 C-0.67 27.67 -0.34 27.34 0 27 C0.13993073 22.73211267 0.15326185 19.11879234 -1 15 C-0.67 14.67 -0.34 14.34 0 14 C0.09894455 12.5653041 0.12970735 11.12559603 0.125 9.6875 C0.12757812 8.90761719 0.13015625 8.12773437 0.1328125 7.32421875 C0.07422636 4.99282864 0.07422636 4.99282864 -0.5703125 2.76953125 C-0.71210938 2.18558594 -0.85390625 1.60164062 -1 1 C-0.67 0.67 -0.34 0.34 0 0 Z " fill="#B1A8D6" transform="translate(29,9)"/>
<path d="M0 0 C6.93 0 13.86 0 21 0 C21 2.31 21 4.62 21 7 C14.07 7 7.14 7 0 7 C0 4.69 0 2.38 0 0 Z " fill="#FFD875" transform="translate(37,49)"/>
<path d="M0 0 C6.93 0 13.86 0 21 0 C21 2.31 21 4.62 21 7 C14.07 7 7.14 7 0 7 C0 4.69 0 2.38 0 0 Z " fill="#FD9499" transform="translate(37,8)"/>
<path d="M0 0 C1.32 0 2.64 0 4 0 C4.08097324 2.27024968 4.13917704 4.54132075 4.1875 6.8125 C4.22230469 8.07707031 4.25710937 9.34164062 4.29296875 10.64453125 C4 14 4 14 2.67578125 15.92578125 C0.05188653 17.60776504 -1.96804552 17.37899431 -5 17 C-6.875 15.9375 -6.875 15.9375 -8 14 C-8.1875 10.3125 -8.1875 10.3125 -8 7 C-4.91190305 5.23537317 -3.76687864 5 0 5 C0 3.35 0 1.7 0 0 Z " fill="#99CCFB" transform="translate(14,31)"/>
<path d="M0 0 C0.66 0 1.32 0 2 0 C2 0.66 2 1.32 2 2 C4.31 2 6.62 2 9 2 C9 1.34 9 0.68 9 0 C9.66 0 10.32 0 11 0 C11 0.66 11 1.32 11 2 C11.99 2 12.98 2 14 2 C14 3.98 14 5.96 14 8 C8.39 8 2.78 8 -3 8 C-3 6.02 -3 4.04 -3 2 C-2.01 2 -1.02 2 0 2 C0 1.34 0 0.68 0 0 Z " fill="#E37E92" transform="translate(12,19)"/>
<path d="M0 0 C5.61 0 11.22 0 17 0 C17 5.61 17 11.22 17 17 C15.68 17 14.36 17 13 17 C13 15.35 13 13.7 13 12 C12.34 12 11.68 12 11 12 C10.67 9.36 10.34 6.72 10 4 C10.99 4 11.98 4 13 4 C13 3.01 13 2.02 13 1 C8.71 1 4.42 1 0 1 C0 0.67 0 0.34 0 0 Z " fill="#E7D9DD" transform="translate(9,27)"/>
<path d="M0 0 C1.32 0 2.64 0 4 0 C4.5625 1.9375 4.5625 1.9375 5 4 C4.67 4.33 4.34 4.66 4 5 C3.90105545 6.4346959 3.87029265 7.87440397 3.875 9.3125 C3.87242188 10.09238281 3.86984375 10.87226562 3.8671875 11.67578125 C3.99500088 13.91251539 4.38086131 15.85266979 5 18 C3.35 18.33 1.7 18.66 0 19 C-0.5625 17.0625 -0.5625 17.0625 -1 15 C-0.67 14.67 -0.34 14.34 0 14 C0.09894455 12.5653041 0.12970735 11.12559603 0.125 9.6875 C0.12757812 8.90761719 0.13015625 8.12773438 0.1328125 7.32421875 C0.07422636 4.99282864 0.07422636 4.99282864 -0.5703125 2.76953125 C-0.71210938 2.18558594 -0.85390625 1.60164063 -1 1 C-0.67 0.67 -0.34 0.34 0 0 Z " fill="#E5C48B" transform="translate(29,36)"/>
<path d="M0 0 C0.66 0 1.32 0 2 0 C2 1.65 2 3.3 2 5 C2.99 5 3.98 5 5 5 C4.34 3.35 3.68 1.7 3 0 C4.32 0.66 5.64 1.32 7 2 C6.67 3.65 6.34 5.3 6 7 C3.625 7.625 3.625 7.625 1 8 C-1 6 -1 6 -1.1875 3.4375 C-1 1 -1 1 0 0 Z " fill="#DFF0FE" transform="translate(9,38)"/>
<path d="M0 0 C1.65 0 3.3 0 5 0 C5 2.64 5 5.28 5 8 C3.35 8 1.7 8 0 8 C0 5.36 0 2.72 0 0 Z " fill="#877DC3" transform="translate(53,21)"/>
<path d="M0 0 C0.33 0 0.66 0 1 0 C2.3260274 5.42465753 2.3260274 5.42465753 0.9375 7.875 C-1.85996999 9.49933741 -3.82365485 9.39704314 -7 9 C-8.875 7.8125 -8.875 7.8125 -10 6 C-10.1875 3.3125 -10.1875 3.3125 -10 1 C-8.68 2.65 -7.36 4.3 -6 6 C-4.35 5.67 -2.7 5.34 -1 5 C-0.67 3.35 -0.34 1.7 0 0 Z " fill="#8ECAFE" transform="translate(16,39)"/>
<path d="M0 0 C0.99 0 1.98 0 3 0 C3 2.64 3 5.28 3 8 C1.35 8 -0.3 8 -2 8 C-1.125 1.125 -1.125 1.125 0 0 Z " fill="#0ED492" transform="translate(55,35)"/>
<path d="M0 0 C1.65 0 3.3 0 5 0 C5 2.31 5 4.62 5 7 C3.35 7 1.7 7 0 7 C0 4.69 0 2.38 0 0 Z " fill="#FFC548" transform="translate(53,49)"/>
<path d="M0 0 C1.65 0 3.3 0 5 0 C5 2.31 5 4.62 5 7 C3.35 7 1.7 7 0 7 C0 4.69 0 2.38 0 0 Z " fill="#FD6873" transform="translate(53,8)"/>
<path d="M0 0 C1.65 0.33 3.3 0.66 5 1 C4.67 2.32 4.34 3.64 4 5 C2.35 4.67 0.7 4.34 -1 4 C-0.67 2.68 -0.34 1.36 0 0 Z " fill="#FD777E" transform="translate(29,9)"/>
<path d="M0 0 C1.32 0 2.64 0 4 0 C4.33 1.32 4.66 2.64 5 4 C3.35 4.33 1.7 4.66 0 5 C-0.5625 3.0625 -0.5625 3.0625 -1 1 C-0.67 0.67 -0.34 0.34 0 0 Z " fill="#0EDE9D" transform="translate(29,36)"/>
<path d="M0 0 C1.32 0 2.64 0 4 0 C4 2.31 4 4.62 4 7 C2.68 6.34 1.36 5.68 0 5 C0 3.35 0 1.7 0 0 Z " fill="#B3A8B3" transform="translate(14,31)"/>
<path d="M0 0 C0.99 0 1.98 0 3 0 C3 1.98 3 3.96 3 6 C1.68 6 0.36 6 -1 6 C-0.67 4.02 -0.34 2.04 0 0 Z " fill="#FE6872" transform="translate(23,21)"/>
<path d="M0 0 C0.99 0 1.98 0 3 0 C3 2.64 3 5.28 3 8 C2.34 8 1.68 8 1 8 C0.67 5.36 0.34 2.72 0 0 Z " fill="#BEB4BE" transform="translate(19,31)"/>
</svg>
