<?xml version="1.0" encoding="UTF-8"?>
<svg version="1.1" xmlns="http://www.w3.org/2000/svg" width="186" height="277">
<path d="M0 0 C61.38 0 122.76 0 186 0 C186 91.41 186 182.82 186 277 C124.62 277 63.24 277 0 277 C0 185.59 0 94.18 0 0 Z " fill="#F6F6F6" transform="translate(0,0)"/>
<path d="M0 0 C0.90284729 -0.00525696 1.80569458 -0.01051392 2.73590088 -0.01593018 C5.71921097 -0.02913059 8.70198725 -0.02039261 11.68530273 -0.01025391 C13.75748294 -0.01227445 15.82966244 -0.01518572 17.90184021 -0.01895142 C22.24371107 -0.02337468 26.58539675 -0.01694288 30.92724609 -0.00292969 C36.49836982 0.01417276 42.06906032 0.00431419 47.64016819 -0.01364708 C51.91834288 -0.02447569 56.19641445 -0.02104299 60.47459221 -0.0132637 C62.52914417 -0.0112597 64.58370544 -0.01372797 66.63824654 -0.02070236 C69.50648007 -0.02830277 72.37400675 -0.01673287 75.2421875 0 C76.09473618 -0.00607269 76.94728485 -0.01214539 77.82566833 -0.0184021 C83.61733914 0.04434218 83.61733914 0.04434218 85.77366543 1.73303795 C87.75264647 4.28657545 87.44536597 6.51582434 87.45483398 9.70068359 C87.45870117 10.94076172 87.46256836 12.18083984 87.46655273 13.45849609 C87.45495117 14.75529297 87.44334961 16.05208984 87.43139648 17.38818359 C87.44299805 18.68498047 87.45459961 19.98177734 87.46655273 21.31787109 C87.46268555 22.55794922 87.45881836 23.79802734 87.45483398 25.07568359 C87.4514502 26.21392578 87.44806641 27.35216797 87.44458008 28.52490234 C87.00459065 31.77030863 86.56952355 32.42264612 84.05639648 34.38818359 C81.01498777 34.68980531 78.1776265 34.80810136 75.13452148 34.79223633 C74.22206665 34.79909958 73.30961182 34.80596283 72.36950684 34.81303406 C69.34831253 34.83136085 66.32763454 34.82745652 63.30639648 34.82177734 C61.21036611 34.82633601 59.11433723 34.83164064 57.01831055 34.83766174 C52.62339204 34.84660418 48.22865514 34.84415644 43.83374023 34.83422852 C38.19412039 34.82273196 32.55512602 34.84295535 26.91558838 34.87214565 C22.586792 34.89046638 18.25814669 34.89022353 13.92932129 34.88450813 C11.84964113 34.88435444 9.76995104 34.89043805 7.69030762 34.90279961 C4.78589288 34.91763148 1.88264888 34.90709048 -1.02172852 34.88989258 C-1.88519897 34.89956055 -2.74866943 34.90922852 -3.63830566 34.91918945 C-9.43980339 34.84703648 -9.43980339 34.84703648 -11.97596741 32.53713989 C-14.157402 27.69254225 -13.41088606 22.03762956 -13.38110352 16.82568359 C-13.40108398 15.58109375 -13.42106445 14.33650391 -13.44165039 13.05419922 C-13.44100586 11.86375 -13.44036133 10.67330078 -13.43969727 9.44677734 C-13.44155029 8.35679443 -13.44340332 7.26681152 -13.4453125 6.14379883 C-12.94360352 3.38818359 -12.94360352 3.38818359 -11.47122192 1.74021912 C-7.69662085 -0.27883357 -4.21885734 -0.03012239 0 0 Z " fill="#FED260" transform="translate(67.943603515625,219.61181640625)"/>
<path d="M0 0 C0.91245483 -0.00525696 1.82490967 -0.01051392 2.76501465 -0.01593018 C5.7862247 -0.02915217 8.80690943 -0.02038425 11.828125 -0.01025391 C13.92415468 -0.01227401 16.02018367 -0.01518491 18.11621094 -0.01895142 C22.51113571 -0.02337775 26.9058777 -0.01693367 31.30078125 -0.00292969 C36.94031321 0.01416227 42.57941687 0.00432276 48.21893311 -0.01364708 C52.54772176 -0.02447649 56.87640851 -0.02104243 61.2052002 -0.0132637 C63.28487193 -0.01125937 65.36455286 -0.01372912 67.44421387 -0.02070236 C70.34847598 -0.02830291 73.25204001 -0.01673213 76.15625 0 C77.01972046 -0.00607269 77.88319092 -0.01214539 78.77282715 -0.0184021 C84.6383636 0.04435009 84.6383636 0.04435009 86.79818726 1.73303795 C88.77331696 4.2871679 88.46709966 6.51756592 88.4765625 9.70068359 C88.48042969 10.94076172 88.48429687 12.18083984 88.48828125 13.45849609 C88.47667969 14.75529297 88.46507812 16.05208984 88.453125 17.38818359 C88.46472656 18.68498047 88.47632813 19.98177734 88.48828125 21.31787109 C88.48441406 22.55794922 88.48054688 23.79802734 88.4765625 25.07568359 C88.47317871 26.21392578 88.46979492 27.35216797 88.46630859 28.52490234 C88.0263872 31.76980679 87.58892608 32.4212711 85.078125 34.38818359 C82.07180889 34.68977314 79.27190093 34.80811916 76.26391602 34.79223633 C75.36282104 34.79909958 74.46172607 34.80596283 73.5333252 34.81303406 C70.54940105 34.83136184 67.5659997 34.82745597 64.58203125 34.82177734 C62.51081673 34.82633637 60.43960373 34.8316411 58.36839294 34.83766174 C54.02474833 34.84660467 49.68128745 34.84415636 45.33764648 34.83422852 C39.76762418 34.82273911 34.19823584 34.84294412 28.62829685 34.87214565 C24.35007184 34.89048066 20.07199948 34.89022054 15.79374504 34.88450813 C13.74001107 34.88435458 11.68626697 34.890427 9.63257027 34.90279961 C6.76188374 34.91765622 3.89237777 34.90707164 1.02172852 34.88989258 C-0.25405815 34.90439453 -0.25405815 34.90439453 -1.55561829 34.91918945 C-5.37741109 34.87123103 -7.29918793 34.84419427 -10.44949341 32.53713989 C-12.43081965 29.64537357 -12.42389376 27.68557793 -12.41796875 24.19677734 C-12.41861328 23.00503906 -12.41925781 21.81330078 -12.41992188 20.58544922 C-12.39994141 19.34472656 -12.37996094 18.10400391 -12.359375 16.82568359 C-12.36646484 15.58109375 -12.37355469 14.33650391 -12.38085938 13.05419922 C-12.31639918 3.89589315 -12.31639918 3.89589315 -10.64094543 1.73976707 C-7.60127234 -0.65011286 -3.7124253 -0.02610908 0 0 Z " fill="#FC848B" transform="translate(66.921875,17.61181640625)"/>
<path d="M0 0 C1.38572205 -0.005476 1.38572205 -0.005476 2.79943848 -0.01106262 C5.85793345 -0.01917934 8.91590054 -0.00554961 11.97436523 0.0090332 C14.09520975 0.00955163 16.21605476 0.00903461 18.3368988 0.00752258 C22.7831031 0.00761235 27.22912625 0.01805265 31.67529297 0.03613281 C37.38435492 0.05883387 43.09315238 0.05936209 48.80224705 0.05261517 C53.18159857 0.04927957 57.56088939 0.05589731 61.94022942 0.0657444 C64.04584371 0.06960273 66.15146475 0.07074201 68.25708199 0.06915855 C71.19495725 0.06878917 74.1324887 0.08137209 77.0703125 0.09765625 C78.38493721 0.09394012 78.38493721 0.09394012 79.72612 0.09014893 C85.74171734 0.14357281 85.74171734 0.14357281 87.97045898 2.37231445 C88.43278056 7.00087256 88.29443788 11.66086242 88.28295898 16.30981445 C88.29907227 17.61112305 88.31518555 18.91243164 88.33178711 20.25317383 C88.33243164 21.49776367 88.33307617 22.74235352 88.33374023 24.0246582 C88.33672119 25.16926514 88.33970215 26.31387207 88.34277344 27.49316406 C87.92066445 30.75738131 87.49613092 31.4001766 84.97045898 33.37231445 C81.92861287 33.66874342 79.09155966 33.78189896 76.04858398 33.76049805 C74.67990173 33.76838348 74.67990173 33.76838348 73.28356934 33.77642822 C70.26235928 33.78965022 67.24167455 33.78088229 64.22045898 33.77075195 C62.12442931 33.77277205 60.02840031 33.77568296 57.93237305 33.77944946 C53.53744827 33.7838758 49.14270628 33.77743172 44.74780273 33.76342773 C39.10827078 33.74633578 33.46916711 33.75617529 27.82965088 33.77414513 C23.50086223 33.78497454 19.17217547 33.78154048 14.84338379 33.77376175 C12.76371205 33.77175741 10.68403113 33.77422717 8.60437012 33.78120041 C5.700108 33.78880096 2.79654397 33.77723017 -0.10766602 33.76049805 C-0.97113647 33.76657074 -1.83460693 33.77264343 -2.72424316 33.77890015 C-8.59167352 33.7161277 -8.59167352 33.7161277 -10.74960327 32.02172279 C-12.69211429 29.51848083 -12.41832485 27.40635057 -12.42797852 24.27856445 C-12.4318457 23.08360352 -12.43571289 21.88864258 -12.43969727 20.6574707 C-12.4280957 19.40836914 -12.41649414 18.15926758 -12.40454102 16.87231445 C-12.41614258 15.62321289 -12.42774414 14.37411133 -12.43969727 13.0871582 C-12.43583008 11.89219727 -12.43196289 10.69723633 -12.42797852 9.46606445 C-12.42459473 8.3697168 -12.42121094 7.27336914 -12.41772461 6.14379883 C-11.43755426 -0.85424761 -5.85629899 -0.05119443 0 0 Z " fill="#9990CB" transform="translate(67.029541015625,85.627685546875)"/>
<path d="M0 0 C0.91245483 -0.00525696 1.82490967 -0.01051392 2.76501465 -0.01593018 C5.7862247 -0.02915217 8.80690943 -0.02038425 11.828125 -0.01025391 C13.92415468 -0.01227401 16.02018367 -0.01518491 18.11621094 -0.01895142 C22.51113571 -0.02337775 26.9058777 -0.01693367 31.30078125 -0.00292969 C36.94031321 0.01416227 42.57941687 0.00432276 48.21893311 -0.01364708 C52.54772176 -0.02447649 56.87640851 -0.02104243 61.2052002 -0.0132637 C63.28487193 -0.01125937 65.36455286 -0.01372912 67.44421387 -0.02070236 C70.34847598 -0.02830291 73.25204001 -0.01673213 76.15625 0 C77.01972046 -0.00607269 77.88319092 -0.01214539 78.77282715 -0.0184021 C84.64000153 0.04436761 84.64000153 0.04436761 86.79917908 1.73877525 C88.7424441 4.24493089 88.4499152 6.35247894 88.44140625 9.48193359 C88.44043945 11.274375 88.44043945 11.274375 88.43945312 13.10302734 C88.42333984 14.35212891 88.40722656 15.60123047 88.390625 16.88818359 C88.39384766 18.13728516 88.39707031 19.38638672 88.40039062 20.67333984 C88.34512755 29.98767977 88.34512755 29.98767977 86.078125 33.38818359 C83.04454227 33.69016417 80.21445917 33.79740697 77.17797852 33.77636719 C75.79488495 33.78425262 75.79488495 33.78425262 74.3838501 33.79229736 C71.32473999 33.80554047 68.26614699 33.79674329 65.20703125 33.78662109 C63.0871521 33.78864076 60.96727362 33.7915513 58.84739685 33.7953186 C54.39941814 33.79974795 49.95161989 33.79329188 45.50366211 33.77929688 C39.79572189 33.76221515 34.08820512 33.77203606 28.38028049 33.79001427 C24.00087787 33.80084447 19.62157596 33.79740907 15.24217033 33.78963089 C13.13737882 33.78762623 11.03257824 33.79009743 8.92779732 33.79706955 C5.98750655 33.80467024 3.0479053 33.79309859 0.10766602 33.77636719 C-0.76672623 33.78243988 -1.64111847 33.78851257 -2.54200745 33.79476929 C-8.48330597 33.73198935 -8.48330597 33.73198935 -10.64473057 32.03759193 C-12.58342 29.5338105 -12.31066431 27.42044757 -12.3203125 24.29443359 C-12.32417969 23.09947266 -12.32804687 21.90451172 -12.33203125 20.67333984 C-12.32042969 19.42423828 -12.30882812 18.17513672 -12.296875 16.88818359 C-12.30847656 15.63908203 -12.32007813 14.38998047 -12.33203125 13.10302734 C-12.32816406 11.90806641 -12.32429688 10.71310547 -12.3203125 9.48193359 C-12.31692871 8.38558594 -12.31354492 7.28923828 -12.31005859 6.15966797 C-11.33616665 -0.79355302 -5.83236037 -0.04101835 0 0 Z " fill="#09E39D" transform="translate(66.921875,152.61181640625)"/>
<path d="M0 0 C3.62493334 -0.05787784 7.24974857 -0.0935542 10.875 -0.125 C11.90753906 -0.14175781 12.94007813 -0.15851563 14.00390625 -0.17578125 C14.99003906 -0.18222656 15.97617188 -0.18867187 16.9921875 -0.1953125 C18.35899658 -0.21102295 18.35899658 -0.21102295 19.75341797 -0.22705078 C22 0 22 0 24 2 C24.46232157 6.62855811 24.32397889 11.28854797 24.3125 15.9375 C24.32861328 17.23880859 24.34472656 18.54011719 24.36132812 19.88085938 C24.36197266 21.12544922 24.36261719 22.37003906 24.36328125 23.65234375 C24.36626221 24.79695068 24.36924316 25.94155762 24.37231445 27.12084961 C24 30 24 30 22.78271484 31.87841797 C20.42917296 33.35913167 18.88411446 33.34334754 16.11328125 33.29296875 C15.17548828 33.28330078 14.23769531 33.27363281 13.27148438 33.26367188 C12.29501953 33.23853516 11.31855469 33.21339844 10.3125 33.1875 C9.32443359 33.17396484 8.33636719 33.16042969 7.31835938 33.14648438 C4.87835769 33.11112203 2.43945281 33.06177033 0 33 C0.66 32.01 1.32 31.02 2 30 C2.36677679 27.39088327 2.50381001 24.80927735 2.65625 22.1796875 C2.7696875 21.46039063 2.883125 20.74109375 3 20 C3.66 19.67 4.32 19.34 5 19 C5.16687448 16.58354218 5.16687448 16.58354218 5 14 C4.34 13.34 3.68 12.68 3 12 C2.65625 9.94140625 2.65625 9.94140625 2.5 7.5625 C2.26931817 4.06190316 2.03849437 3.05774155 0 0 Z " fill="#8379C1" transform="translate(131,86)"/>
<path d="M0 0 C3.60401481 -0.08701039 7.20776012 -0.14039388 10.8125 -0.1875 C12.34874023 -0.22520508 12.34874023 -0.22520508 13.91601562 -0.26367188 C15.39038086 -0.27817383 15.39038086 -0.27817383 16.89453125 -0.29296875 C18.25348511 -0.31653442 18.25348511 -0.31653442 19.63989258 -0.34057617 C22 0 22 0 23.79638672 1.13745117 C25.53310299 3.82495795 25.37193272 5.91188067 25.36328125 9.09375 C25.36263672 10.28871094 25.36199219 11.48367187 25.36132812 12.71484375 C25.34521484 13.96394531 25.32910156 15.21304688 25.3125 16.5 C25.31733398 18.37365234 25.31733398 18.37365234 25.32226562 20.28515625 C25.26700255 29.59949617 25.26700255 29.59949617 23 33 C20.75341797 33.34057617 20.75341797 33.34057617 17.9921875 33.29296875 C17.00605469 33.28330078 16.01992187 33.27363281 15.00390625 33.26367188 C13.97136719 33.23853516 12.93882812 33.21339844 11.875 33.1875 C10.31458984 33.16719727 10.31458984 33.16719727 8.72265625 33.14648438 C6.14792373 33.11105228 3.5742167 33.06165221 1 33 C1.99 32.505 1.99 32.505 3 32 C3.39258939 29.47907827 3.39258939 29.47907827 3.5 26.5625 C3.77854195 21.22145805 3.77854195 21.22145805 6 19 C6.16687448 16.41645782 6.16687448 16.41645782 6 14 C5.34 13.67 4.68 13.34 4 13 C3.64327759 10.48036578 3.55624883 7.98666757 3.44140625 5.4453125 C2.9271261 2.5962915 2.0796874 1.90278811 0 0 Z " fill="#0ED290" transform="translate(130,153)"/>
<path d="M0 0 C3.45826342 -0.05789006 6.91640293 -0.09355821 10.375 -0.125 C11.35984375 -0.14175781 12.3446875 -0.15851563 13.359375 -0.17578125 C14.77089844 -0.18544922 14.77089844 -0.18544922 16.2109375 -0.1953125 C17.51490479 -0.21102295 17.51490479 -0.21102295 18.84521484 -0.22705078 C21 0 21 0 23 2 C23.25878906 4.765625 23.25878906 4.765625 23.265625 8.25 C23.26949219 10.12171875 23.26949219 10.12171875 23.2734375 12.03125 C23.26570313 13.3409375 23.25796875 14.650625 23.25 16 C23.25773437 17.3096875 23.26546875 18.619375 23.2734375 19.96875 C23.27085937 21.2165625 23.26828125 22.464375 23.265625 23.75 C23.26336914 24.89984375 23.26111328 26.0496875 23.25878906 27.234375 C23 30 23 30 21 32 C18.84521484 32.22705078 18.84521484 32.22705078 16.2109375 32.1953125 C15.26992187 32.18886719 14.32890625 32.18242187 13.359375 32.17578125 C11.88210937 32.15064453 11.88210937 32.15064453 10.375 32.125 C9.38242188 32.11597656 8.38984375 32.10695312 7.3671875 32.09765625 C4.91121866 32.07404116 2.45572832 32.04110799 0 32 C0.28168297 30.04020573 0.57566717 28.08217622 0.875 26.125 C1.03742188 25.03445312 1.19984375 23.94390625 1.3671875 22.8203125 C2 20 2 20 4 18 C3.71016731 14.69316534 3.71016731 14.69316534 2 12 C1.79160764 10.54704215 1.63246419 9.0868369 1.5 7.625 C1.24478838 4.82678686 0.8972983 2.69189489 0 0 Z " fill="#FEC344" transform="translate(132,221)"/>
<path d="M0 0 C3.45826342 -0.05789006 6.91640293 -0.09355821 10.375 -0.125 C11.35984375 -0.14175781 12.3446875 -0.15851562 13.359375 -0.17578125 C14.77089844 -0.18544922 14.77089844 -0.18544922 16.2109375 -0.1953125 C17.51490479 -0.21102295 17.51490479 -0.21102295 18.84521484 -0.22705078 C21 0 21 0 23 2 C23.25878906 4.765625 23.25878906 4.765625 23.265625 8.25 C23.26949219 10.12171875 23.26949219 10.12171875 23.2734375 12.03125 C23.26570313 13.3409375 23.25796875 14.650625 23.25 16 C23.25773437 17.3096875 23.26546875 18.619375 23.2734375 19.96875 C23.27085937 21.2165625 23.26828125 22.464375 23.265625 23.75 C23.26336914 24.89984375 23.26111328 26.0496875 23.25878906 27.234375 C23 30 23 30 21 32 C18.84521484 32.22705078 18.84521484 32.22705078 16.2109375 32.1953125 C15.26992187 32.18886719 14.32890625 32.18242188 13.359375 32.17578125 C11.88210937 32.15064453 11.88210937 32.15064453 10.375 32.125 C9.38242188 32.11597656 8.38984375 32.10695312 7.3671875 32.09765625 C4.91121866 32.07404116 2.45572832 32.04110799 0 32 C0.33 31.34 0.66 30.68 1 30 C1.2724167 27.44014782 1.44564981 24.88070064 1.62109375 22.3125 C2 20 2 20 4 18 C3.71016731 14.69316534 3.71016731 14.69316534 2 12 C1.79160985 10.35892758 1.63248275 8.71143707 1.5 7.0625 C1.24785057 3.39442535 1.24785057 3.39442535 0 0 Z " fill="#FD646F" transform="translate(132,19)"/>
<path d="M0 0 C1.1947142 -0.00637985 2.38942841 -0.0127597 3.62034607 -0.01933289 C4.92133743 -0.02044571 6.2223288 -0.02155853 7.56274414 -0.02270508 C8.90173886 -0.02591608 10.24073321 -0.02928003 11.57972717 -0.03279114 C14.39007379 -0.03878841 17.20038962 -0.04063043 20.01074219 -0.04003906 C23.61686399 -0.03993742 27.22278897 -0.05358878 30.8288641 -0.07081127 C33.59547334 -0.08191492 36.36203477 -0.08395878 39.12866402 -0.08342934 C41.10629354 -0.08518822 43.08390813 -0.09603985 45.06150818 -0.10697937 C46.25937454 -0.10390274 47.45724091 -0.10082611 48.69140625 -0.09765625 C50.27906044 -0.09979378 50.27906044 -0.09979378 51.89878845 -0.10197449 C54.41040039 0.14526367 54.41040039 0.14526367 56.41040039 2.14526367 C55.85484484 6.70081923 55.85484484 6.70081923 54.41040039 8.14526367 C52.54949463 8.24960986 50.68461763 8.28381004 48.82080078 8.29052734 C47.62608658 8.2969072 46.43137238 8.30328705 45.20045471 8.30986023 C43.89946335 8.31097305 42.59847198 8.31208588 41.25805664 8.31323242 C39.91906193 8.31644343 38.58006757 8.31980738 37.24107361 8.32331848 C34.43072699 8.32931576 31.62041116 8.33115778 28.81005859 8.33056641 C25.20393679 8.33046477 21.59801181 8.34411612 17.99193668 8.36133862 C15.22532744 8.37244226 12.45876601 8.37448612 9.69213676 8.37395668 C7.71450725 8.37571557 5.73689265 8.38656719 3.7592926 8.39750671 C2.56142624 8.39443008 1.36355988 8.39135345 0.12939453 8.38818359 C-1.45825966 8.39032112 -1.45825966 8.39032112 -3.07798767 8.39250183 C-5.58959961 8.14526367 -5.58959961 8.14526367 -7.58959961 6.14526367 C-6.85629136 0.13213606 -5.83183936 0.02101829 0 0 Z " fill="#FFFCF4" transform="translate(80.589599609375,232.854736328125)"/>
<path d="M0 0 C1.1947142 -0.00637985 2.38942841 -0.0127597 3.62034607 -0.01933289 C4.92133743 -0.02044571 6.2223288 -0.02155853 7.56274414 -0.02270508 C8.90173886 -0.02591608 10.24073321 -0.02928003 11.57972717 -0.03279114 C14.39007379 -0.03878841 17.20038962 -0.04063043 20.01074219 -0.04003906 C23.61686399 -0.03993742 27.22278897 -0.05358878 30.8288641 -0.07081127 C33.59547334 -0.08191492 36.36203477 -0.08395878 39.12866402 -0.08342934 C41.10629354 -0.08518822 43.08390813 -0.09603985 45.06150818 -0.10697937 C46.25937454 -0.10390274 47.45724091 -0.10082611 48.69140625 -0.09765625 C50.27906044 -0.09979378 50.27906044 -0.09979378 51.89878845 -0.10197449 C54.41040039 0.14526367 54.41040039 0.14526367 56.41040039 2.14526367 C55.85484484 6.70081923 55.85484484 6.70081923 54.41040039 8.14526367 C52.54949463 8.24960986 50.68461763 8.28381004 48.82080078 8.29052734 C47.62608658 8.2969072 46.43137238 8.30328705 45.20045471 8.30986023 C43.89946335 8.31097305 42.59847198 8.31208588 41.25805664 8.31323242 C39.91906193 8.31644343 38.58006757 8.31980738 37.24107361 8.32331848 C34.43072699 8.32931576 31.62041116 8.33115778 28.81005859 8.33056641 C25.20393679 8.33046477 21.59801181 8.34411612 17.99193668 8.36133862 C15.22532744 8.37244226 12.45876601 8.37448612 9.69213676 8.37395668 C7.71450725 8.37571557 5.73689265 8.38656719 3.7592926 8.39750671 C2.56142624 8.39443008 1.36355988 8.39135345 0.12939453 8.38818359 C-1.45825966 8.39032112 -1.45825966 8.39032112 -3.07798767 8.39250183 C-5.58959961 8.14526367 -5.58959961 8.14526367 -7.58959961 6.14526367 C-6.85629136 0.13213606 -5.83183936 0.02101829 0 0 Z " fill="#FEF6F7" transform="translate(80.589599609375,30.854736328125)"/>
<path d="M0 0 C1.8569751 -0.00472824 1.8569751 -0.00472824 3.75146484 -0.009552 C5.11295609 -0.00776222 6.47444701 -0.00571127 7.8359375 -0.00341797 C9.22216814 -0.00409106 10.60839867 -0.00506113 11.99462891 -0.00631714 C14.90333172 -0.00779387 17.81200387 -0.00564037 20.72070312 -0.00097656 C24.45690348 0.00472073 28.19303202 0.00144159 31.92922974 -0.00454903 C34.79273016 -0.00815532 37.65621343 -0.00701574 40.51971436 -0.00442123 C41.89768482 -0.00375215 43.27565682 -0.00457973 44.65362549 -0.00690079 C46.57637504 -0.00942839 48.49913002 -0.0048957 50.421875 0 C52.06615479 0.00119339 52.06615479 0.00119339 53.74365234 0.00241089 C56.2109375 0.12939453 56.2109375 0.12939453 57.2109375 1.12939453 C57.3359375 3.62939453 57.3359375 3.62939453 57.2109375 6.12939453 C55.43177283 7.9085592 52.82780451 7.25704288 50.421875 7.25878906 C49.1838916 7.26194122 47.9459082 7.26509338 46.67041016 7.26834106 C45.30891891 7.26655128 43.94742799 7.26450033 42.5859375 7.26220703 C41.19970686 7.26288012 39.81347633 7.26385019 38.42724609 7.2651062 C35.51854328 7.26658293 32.60987113 7.26442943 29.70117188 7.25976562 C25.96497152 7.25406834 22.22884298 7.25734748 18.49264526 7.26333809 C15.62914484 7.26694438 12.76566157 7.2658048 9.90216064 7.2632103 C8.52419018 7.26254122 7.14621818 7.2633688 5.76824951 7.26568985 C3.84549996 7.26821745 1.92274498 7.26368477 0 7.25878906 C-1.64427979 7.25759567 -1.64427979 7.25759567 -3.32177734 7.25637817 C-5.7890625 7.12939453 -5.7890625 7.12939453 -6.7890625 6.12939453 C-6.9140625 3.62939453 -6.9140625 3.62939453 -6.7890625 1.12939453 C-5.00989783 -0.64977014 -2.40592951 0.00174618 0 0 Z " fill="#FDFEFE" transform="translate(79.7890625,165.87060546875)"/>
<path d="M0 0 C1.8569751 -0.00472824 1.8569751 -0.00472824 3.75146484 -0.009552 C5.11295609 -0.00776222 6.47444701 -0.00571127 7.8359375 -0.00341797 C9.22216814 -0.00409106 10.60839867 -0.00506113 11.99462891 -0.00631714 C14.90333172 -0.00779387 17.81200387 -0.00564037 20.72070312 -0.00097656 C24.45690348 0.00472073 28.19303202 0.00144159 31.92922974 -0.00454903 C34.79273016 -0.00815532 37.65621343 -0.00701574 40.51971436 -0.00442123 C41.89768482 -0.00375215 43.27565682 -0.00457973 44.65362549 -0.00690079 C46.57637504 -0.00942839 48.49913002 -0.0048957 50.421875 0 C52.06615479 0.00119339 52.06615479 0.00119339 53.74365234 0.00241089 C56.2109375 0.12939453 56.2109375 0.12939453 57.2109375 1.12939453 C57.3359375 3.62939453 57.3359375 3.62939453 57.2109375 6.12939453 C55.43177283 7.9085592 52.82780451 7.25704288 50.421875 7.25878906 C49.1838916 7.26194122 47.9459082 7.26509338 46.67041016 7.26834106 C45.30891891 7.26655128 43.94742799 7.26450033 42.5859375 7.26220703 C41.19970686 7.26288012 39.81347633 7.26385019 38.42724609 7.2651062 C35.51854328 7.26658293 32.60987113 7.26442943 29.70117188 7.25976562 C25.96497152 7.25406834 22.22884298 7.25734748 18.49264526 7.26333809 C15.62914484 7.26694438 12.76566157 7.2658048 9.90216064 7.2632103 C8.52419018 7.26254122 7.14621818 7.2633688 5.76824951 7.26568985 C3.84549996 7.26821745 1.92274498 7.26368477 0 7.25878906 C-1.64427979 7.25759567 -1.64427979 7.25759567 -3.32177734 7.25637817 C-5.7890625 7.12939453 -5.7890625 7.12939453 -6.7890625 6.12939453 C-6.9140625 3.62939453 -6.9140625 3.62939453 -6.7890625 1.12939453 C-5.00989783 -0.64977014 -2.40592951 0.00174618 0 0 Z " fill="#FEFEFE" transform="translate(79.7890625,98.87060546875)"/>
<path d="M0 0 C3.27981751 2.06771104 4.84746007 3.77119011 7 7 C7.67116683 13.93539055 7.67116683 13.93539055 5.1875 17.875 C2.06236435 20.91084606 0.53396966 21.94832552 -3.875 22.375 C-7.05440343 22.29317712 -8.03293521 21.97995248 -10.875 20.25 C-13.79007536 17.16344962 -14.82513599 15.34062405 -15.375 11.125 C-14.89861498 7.15512486 -13.46959574 5.10463464 -11 2 C-7.31185227 -0.45876515 -4.283157 -0.6943399 0 0 Z " fill="#FEC44C" transform="translate(26,226)"/>
<path d="M0 0 C3.70390021 2.02666238 5.65363011 3.48044516 8 7 C8.44456411 11.59382919 8.65588803 13.88256113 6.3125 17.875 C2.69457195 21.19958254 0.42774356 22.02549542 -4.5 21.9375 C-8.66166007 20.82276962 -10.27978168 19.28026327 -13 16 C-14.55024464 12.89951072 -14.28992015 10.42105782 -14 7 C-10.24882221 1.17920688 -6.92075169 -0.70380526 0 0 Z " fill="#FD6873" transform="translate(25,24)"/>
<path d="M0 0 C3.02508145 1.73602105 5.41790069 3.83580137 7 7 C7.12742751 11.63290034 6.55454372 15.12346315 4.0625 19.0625 C0.32932423 21.42430508 -2.18032185 21.8419301 -6.55078125 21.61328125 C-10.17917424 20.70473628 -11.86808862 19.00709557 -13.99609375 16 C-15.64744023 12.71015798 -15.71813507 10.59067534 -15 7 C-11.27905969 0.934731 -7.08648744 -1.20956743 0 0 Z " fill="#12D292" transform="translate(26,159)"/>
<path d="M0 0 C2.82424288 2.19022918 4.41508603 3.83017207 6 7 C6.2262475 12.0069555 5.69507747 15.16929766 2.4375 19.0625 C-1.66706584 21.37598256 -4.4070603 22.10486223 -9 21 C-12.42215793 19.07114735 -14.46291808 17.66857474 -15.6953125 13.83984375 C-16.29236525 10.03522038 -16.27240238 7.6401456 -14.75 4.0625 C-10.60086076 -0.82755696 -6.02177147 -0.97001422 0 0 Z " fill="#857BC2" transform="translate(27,92)"/>
<path d="M0 0 C2.64 0 5.28 0 8 0 C8 15.51 8 31.02 8 47 C5.36 47 2.72 47 0 47 C0 31.49 0 15.98 0 0 Z " fill="#C5BEE0" transform="translate(18,45)"/>
<path d="M0 0 C2.64 0 5.28 0 8 0 C8 15.18 8 30.36 8 46 C5.36 46 2.72 46 0 46 C0 30.82 0 15.64 0 0 Z " fill="#C3BFE0" transform="translate(18,180)"/>
<path d="M0 0 C2.64 0 5.28 0 8 0 C8 15.18 8 30.36 8 46 C5.36 46 2.72 46 0 46 C0 30.82 0 15.64 0 0 Z " fill="#C4BFE1" transform="translate(18,113)"/>
<path d="M0 0 C4.875 3.75 4.875 3.75 6 6 C6.68585132 12.85851319 6.68585132 12.85851319 4.8828125 15.859375 C3.66339507 17.30614145 2.33792975 18.66207025 1 20 C-1.54532213 18.66035678 -3.57078153 17.57229129 -5.3125 15.25 C-6.31199111 11.9789382 -6.3581657 9.40257412 -6 6 C-4.20437595 3.24670979 -2.94745078 1.47372539 0 0 Z " fill="#FC8289" transform="translate(17,25)"/>
<path d="M0 0 C4.875 3.75 4.875 3.75 6 6 C6.68585132 12.85851319 6.68585132 12.85851319 4.8828125 15.859375 C3.66339507 17.30614145 2.33792975 18.66207025 1 20 C-2.54293666 18.13529649 -4.77228817 16.90635582 -6 13 C-6.52791074 8.95268431 -6.16135948 7.28506841 -4.125 3.6875 C-2 1 -2 1 0 0 Z " fill="#FED15E" transform="translate(17,227)"/>
<path d="M0 0 C3.37177797 1.39521847 5.25017709 2.76282761 7 6 C7.56683728 10.37274476 7.25669398 12.51316659 5.1875 16.4375 C4.465625 17.283125 3.74375 18.12875 3 19 C0 19 0 19 -2.6875 16.4375 C-4.64633819 13.90708593 -5.0348868 12.80463392 -5.625 9.5 C-4.809523 4.93332881 -3.20339152 3.28347631 0 0 Z " fill="#0BE39E" transform="translate(16,160)"/>
<path d="M0 0 C4.875 4.75 4.875 4.75 6 7 C6.04351484 11.50813764 5.80639538 14.99811483 2.9375 18.5625 C2.298125 19.036875 1.65875 19.51125 1 20 C-2.83968859 18.5435664 -4.31006462 16.71785783 -6 13 C-6.58071759 8.35425928 -5.80097884 5.73463846 -3 2 C-2.01 1.34 -1.02 0.68 0 0 Z " fill="#9990CB" transform="translate(17,92)"/>
</svg>
